<?xml version="1.0" encoding="utf-8"?>
<!-- Generator: Adobe Illustrator 20.1.0, SVG Export Plug-In . SVG Version: 6.00 Build 0)  -->
<svg version="1.1" id="Layer_1" xmlns="http://www.w3.org/2000/svg" xmlns:xlink="http://www.w3.org/1999/xlink" x="0px" y="0px"
	 width="150px" height="150px" viewBox="0 0 150 150" style="enable-background:new 0 0 150 150;" xml:space="preserve">
<style type="text/css">
	.st0{fill:#F38B00;}
	.st1{fill:#252628;}
</style>
<rect x="3.7" y="30.6" class="st0" width="49.9" height="109.9"/>
<g>
	<path class="st1" d="M143.2,140.8h-9.7V64.7c0-2.1-1.4-3.7-3.5-4.1l-31.7-4.7V22.4c0-2.3-1.9-4.1-4.1-4.1h-9.3V5.1
		C85.1,2.8,83.2,1,81,1H25c-2.3,0-4.1,1.8-4.1,4.1v13.2h-9.3c-2.3,0-4.1,1.8-4.1,4.1v118.4H6.8c-2.3,0-4.1,1.9-4.1,4.1
		s1.8,4.1,4.1,4.1h136.5c2.3,0,4.1-1.9,4.1-4.1S145.5,140.8,143.2,140.8z M29.2,9.2h47.7v9H29.2V9.2z M15.8,26.5H25H81h9.3v114.3
		H15.8V26.5z M98.4,140.8V64.3l26.9,3.9v72.6H98.4z"/>
	<path class="st1" d="M45,37.2H29.4c-2.3,0-4.1,1.8-4.1,4.1v15.6c0,2.3,1.8,4.1,4.1,4.1s4.1-1.8,4.1-4.1V45.4H45
		c2.3,0,4.1-1.8,4.1-4.1S47.2,37.2,45,37.2z"/>
	<path class="st1" d="M76.4,37.2H60.8c-2.3,0-4.1,1.8-4.1,4.1v15.6c0,2.3,1.8,4.1,4.1,4.1s4.1-1.8,4.1-4.1V45.4h11.5
		c2.3,0,4.1-1.8,4.1-4.1S78.7,37.2,76.4,37.2z"/>
	<path class="st1" d="M45,71.7H29.4c-2.3,0-4.1,1.9-4.1,4.1v15.6c0,2.3,1.8,4.1,4.1,4.1s4.1-1.9,4.1-4.1V79.9H45
		c2.3,0,4.1-1.8,4.1-4.1S47.2,71.7,45,71.7z"/>
	<path class="st1" d="M76.4,71.7H60.8c-2.3,0-4.1,1.9-4.1,4.1v15.6c0,2.3,1.8,4.1,4.1,4.1s4.1-1.9,4.1-4.1V79.9h11.5
		c2.3,0,4.1-1.8,4.1-4.1S78.7,71.7,76.4,71.7z"/>
	<path class="st1" d="M45,106.2H29.4c-2.3,0-4.1,1.9-4.1,4.1V126c0,2.3,1.8,4.1,4.1,4.1s4.1-1.8,4.1-4.1v-11.5H45
		c2.3,0,4.1-1.8,4.1-4.1S47.2,106.2,45,106.2z"/>
	<path class="st1" d="M76.4,106.2H60.8c-2.3,0-4.1,1.9-4.1,4.1V126c0,2.3,1.8,4.1,4.1,4.1s4.1-1.8,4.1-4.1v-11.5h11.5
		c2.3,0,4.1-1.8,4.1-4.1S78.7,106.2,76.4,106.2z"/>
</g>
</svg>
