<?xml version="1.0" encoding="utf-8"?>
<!-- Generator: Adobe Illustrator 20.1.0, SVG Export Plug-In . SVG Version: 6.00 Build 0)  -->
<svg version="1.1" id="Layer_1" xmlns="http://www.w3.org/2000/svg" xmlns:xlink="http://www.w3.org/1999/xlink" x="0px" y="0px"
	 width="182px" height="182px" viewBox="0 0 182 182" style="enable-background:new 0 0 182 182;" xml:space="preserve">
<style type="text/css">
	.st0{fill:#F38B00;}
	.st1{fill:#252628;}
</style>
<rect x="4.3" y="37" class="st0" width="60.7" height="133.7"/>
<g>
	<path class="st1" d="M174,171h-11.7V78.5c0-2.5-1.8-4.5-4.3-5l-38.5-5.8V27c0-2.8-2.3-5-5-5h-11.3V6c0-2.8-2.3-5-5-5h-68
		c-2.8,0-5,2.3-5,5v16H14c-2.8,0-5,2.2-5,5v144H8c-2.8,0-5,2.3-5,5s2.2,5,5,5h166c2.7,0,5-2.3,5-5S176.8,171,174,171z M35.2,11h58
		v11h-58V11z M19,32h11.3h68h11.3v139H19V32z M119.5,171V78l32.8,4.8V171H119.5z"/>
	<path class="st1" d="M54.5,45h-19c-2.8,0-5,2.3-5,5v19c0,2.8,2.2,5,5,5c2.8,0,5-2.3,5-5V55h14c2.8,0,5-2.3,5-5S57.2,45,54.5,45z"/>
	<path class="st1" d="M92.8,45h-19c-2.8,0-5,2.3-5,5v19c0,2.8,2.3,5,5,5s5-2.3,5-5V55h14c2.7,0,5-2.3,5-5S95.5,45,92.8,45z"/>
	<path class="st1" d="M54.5,87h-19c-2.8,0-5,2.3-5,5v19c0,2.8,2.2,5,5,5c2.8,0,5-2.3,5-5V97h14c2.8,0,5-2.3,5-5
		C59.5,89.3,57.2,87,54.5,87z"/>
	<path class="st1" d="M92.8,87h-19c-2.8,0-5,2.3-5,5v19c0,2.8,2.3,5,5,5s5-2.3,5-5V97h14c2.7,0,5-2.3,5-5C97.7,89.3,95.5,87,92.8,87
		z"/>
	<path class="st1" d="M54.5,129h-19c-2.8,0-5,2.3-5,5v19c0,2.8,2.2,5,5,5c2.8,0,5-2.3,5-5v-14h14c2.8,0,5-2.3,5-5S57.2,129,54.5,129
		z"/>
	<path class="st1" d="M92.8,129h-19c-2.8,0-5,2.3-5,5v19c0,2.8,2.3,5,5,5s5-2.3,5-5v-14h14c2.7,0,5-2.3,5-5S95.5,129,92.8,129z"/>
</g>
</svg>
