<?xml version="1.0" encoding="utf-8"?>
<!-- Generator: Adobe Illustrator 19.0.0, SVG Export Plug-In . SVG Version: 6.00 Build 0)  -->
<svg version="1.1" id="Layer_1" xmlns="http://www.w3.org/2000/svg" xmlns:xlink="http://www.w3.org/1999/xlink" x="0px" y="0px"
	 viewBox="0 0 183.5 183.7" style="enable-background:new 0 0 183.5 183.7;" xml:space="preserve">
<style type="text/css">
	.st0{opacity:0.5;fill:#FFFFFF;enable-background:new    ;}
	.st1{opacity:0.5;fill:#05A3B0;enable-background:new    ;}
	.st2{fill:#FFFFFF;}
	.st3{fill:#05A3B0;}
</style>
<g id="XMLID_3_">
	<g id="XMLID_2_">
		<path id="XMLID_33_" class="st0" d="M22.9,70.5C26.6,59.2,33,49,41.3,40.9c0.1-0.1,0.2-0.2,0.4-0.3L27.9,26.8
			C17.1,37.2,8.9,50.1,4.2,64.7L22.9,70.5z"/>
		<path id="XMLID_24_" class="st0" d="M35.7,137.3c-7.3-9.2-12.3-20.2-14.4-32.2l-19.5,3.4c2.6,15.3,9,29.2,18.2,40.9L35.7,137.3z"
			/>
		<path id="XMLID_23_" class="st0" d="M92.4,19.6c5.4,0,10.7,0.6,15.8,1.8l3.7-19.2c-6.3-1.4-12.8-2.1-19.5-2.1
			c-8.7,0-17.1,1.2-25.1,3.5c-0.1,0-0.1,0-0.2,0.1l5.4,18.7C78.7,20.6,85.4,19.6,92.4,19.6z"/>
		<path id="XMLID_22_" class="st0" d="M125.2,155.6c-10.1,5.3-21.6,8.3-33.8,8.2c-10.3-0.1-20-2.3-28.8-6.2l-8.2,18.2
			c11.3,5,23.7,7.9,36.9,8c16,0.1,31-3.9,44.1-11L125.2,155.6z"/>
		<path id="XMLID_21_" class="st0" d="M177.4,58.1c-5.6-14.2-14.7-26.6-26.1-36.3l-12.9,14.7c9.2,7.7,16.4,17.6,20.8,28.9
			L177.4,58.1z"/>
		<path id="XMLID_18_" class="st0" d="M164,98.5c-1.2,12.2-5.5,23.6-12.1,33.2l16.4,11.2c8.5-12.5,13.9-27.2,15.4-43L164,98.5z"/>
	</g>
	<path id="XMLID_14_" class="st1" d="M183.4,99.6c0.2-2.5,0.3-5.1,0.3-7.6c0-11.9-2.3-23.2-6.4-33.7l-17.9,7.2
		c-4.4-11.3-11.6-21.3-20.8-28.9l12.7-14.5c-11.2-9.5-24.7-16.4-39.5-19.7l-3.6,19.1c-5.1-1.1-10.4-1.8-15.8-1.8
		c-6.9,0-13.6,1-20,2.8L68,7.2l-1-3.5C51.9,8,38.4,16,27.5,26.7l0.3,0.1l13.8,13.8c-0.1,0.1-0.2,0.2-0.4,0.3
		C32.8,49,26.4,59.1,22.8,70.5L4.3,64.8c-2.6,8.6-4.1,17.7-4.1,27.1c0,5.7,0.5,11.3,1.5,16.7h0.2v-0.1l2.1-0.4l1.6-0.3l15.7-2.7
		c2.1,12,7.2,23,14.4,32.2l-15.5,12c9.1,11.3,20.8,20.4,34.2,26.4l8-18.1c8.8,3.9,18.6,6,28.9,6c12.2,0,23.7-3,33.7-8.4l9.6,16l0,0
		l0.5,0.9l0.1,0.2l0,0l0.1,0.2c13.2-7.2,24.5-17.5,32.8-30l-0.2-0.1l0,0l-16.4-11.2c6.6-9.6,10.9-21,12.2-33.2L183.4,99.6z"/>
	<circle id="XMLID_1_" class="st2" cx="91.7" cy="92" r="54.8"/>
	<path id="XMLID_8_" class="st3" d="M78.8,67.3v49.1c0,0.8,0.8,1.3,1.5,0.9l37.4-24.2c0.9-0.6,0.9-1.9,0-2.5L80.3,66.4
		C79.7,66,78.8,66.5,78.8,67.3z"/>
</g>
</svg>
