<svg xmlns="http://www.w3.org/2000/svg" width="56" height="40" viewBox="0 0 56 40">
  <path fill="#00A1AF" fill-rule="evenodd" d="M0.72,31.08 C9.2000424,30.1999956 13.1200032,26.2400352 12.48,19.2 L5.04,19.2 L5.04,0 L24.48,0 L24.48,16.2 C24.48,24.1200396 22.5600192,29.8199826 18.72,33.3 C14.8799808,36.7800174 9.4000356,38.5599996 2.28,38.64 L0.72,31.08 Z M31.2,31.08 C39.6800424,30.1999956 43.6000032,26.2400352 42.96,19.2 L35.52,19.2 L35.52,0 L54.96,0 L54.96,16.2 C54.96,24.1200396 53.0400192,29.8199826 49.2,33.3 C45.3599808,36.7800174 39.8800356,38.5599996 32.76,38.64 L31.2,31.08 Z"/>
</svg>
