<?xml version="1.0" encoding="UTF-8"?> <!-- Generator: Adobe Illustrator 23.0.3, SVG Export Plug-In . SVG Version: 6.00 Build 0) --> <svg xmlns="http://www.w3.org/2000/svg" xmlns:xlink="http://www.w3.org/1999/xlink" id="Layer_1" x="0px" y="0px" viewBox="0 0 160 50" style="enable-background:new 0 0 160 50;" xml:space="preserve"> <style type="text/css"> .st0{fill:#FF2178;} .st1{fill:#05035C;} </style> <polygon class="st0" points="1,13.55 1,36.31 12.11,36.31 12.66,31.63 6.78,31.63 6.78,13.55 "></polygon> <rect x="14.05" y="13.55" class="st0" width="5.76" height="22.76"></rect> <g> <path class="st0" d="M24.45,36.31l-3.28-22.76h6.03l0.59,7.86c0.21,2.79,0.45,6.17,0.59,9.22h0.3c0.13-3.29,0.37-6.28,0.56-9.22 l0.54-7.86h5.87L32.3,36.31H24.45z"></path> <polygon class="st0" points="48.17,26.79 42.78,26.79 42.78,31.73 49.05,31.73 48.39,36.31 37.08,36.31 37.08,13.55 48.42,13.55 48.42,18.15 42.78,18.15 42.78,22.19 48.17,22.19 "></polygon> <path class="st1" d="M54.81,23.28h1.51c2.22,0,3.05-0.97,3.05-3.38v-0.4c0-1.92-0.69-3.07-2.79-3.07h-1.77V23.28z M54.81,26.25 v10.06h-3.6V13.47h5.83c3.8,0,5.95,1.8,5.95,5.84v0.43c0,3.38-1.58,4.58-2.66,5c1.59,0.72,2.37,1.99,2.37,5.22v0.47 c0,2.24,0.04,4.56,0.26,5.87h-3.5c-0.32-1.21-0.31-3.98-0.31-5.78V30.1c0-2.95-0.54-3.85-2.91-3.85H54.81z"></path> <path class="st1" d="M69.02,21.99v5.57c0,3.85,0.81,5.96,2.72,5.96c2.01,0,2.74-1.97,2.74-5.99v-5.55c0-3.76-0.73-5.69-2.74-5.69 C69.8,16.3,69.02,18.3,69.02,21.99 M78.17,22.18v5.21c0,6.36-2.02,9.28-6.55,9.28c-4.31,0-6.29-2.92-6.29-9.27v-5.25 c0-6.3,2.43-9.02,6.48-9.02C76.03,13.13,78.17,16.03,78.17,22.18"></path> <path class="st1" d="M84.63,13.47v16.56c0,1.84,0.53,3.49,2.55,3.49c2,0,2.52-1.51,2.52-3.48V13.47h3.62v16.57 c0,3.86-1.6,6.62-6.2,6.62c-4.47,0-6.11-2.53-6.11-6.61V13.47H84.63z"></path> <polygon class="st1" points="96.69,13.47 100.31,13.47 100.31,33.15 107.15,33.15 106.8,36.31 96.69,36.31 "></polygon> <polygon class="st1" points="118.76,25.91 112.52,25.91 112.52,33.1 119.59,33.1 119.13,36.31 108.93,36.31 108.93,13.47 119.08,13.47 119.08,16.72 112.52,16.72 112.52,22.69 118.76,22.69 "></polygon> <polygon class="st1" points="125.03,16.72 120.72,16.72 120.72,13.47 132.97,13.47 132.97,16.72 128.65,16.72 128.65,36.31 125.03,36.31 "></polygon> <polygon class="st1" points="138.48,16.72 134.17,16.72 134.17,13.47 146.41,13.47 146.41,16.72 142.09,16.72 142.09,36.31 138.48,36.31 "></polygon> <polygon class="st1" points="158.18,25.91 151.93,25.91 151.93,33.1 159,33.1 158.55,36.31 148.34,36.31 148.34,13.47 158.49,13.47 158.49,16.72 151.93,16.72 151.93,22.69 158.18,22.69 "></polygon> </g> </svg> 