<svg version="1.1" id="Layer_1" xmlns="http://www.w3.org/2000/svg" x="0" y="0" width="150" height="150" viewBox="0 0 150 150" xml:space="preserve"><style type="text/css">.st0{fill:#f38b00}.st1{fill:#252628}</style><path class="st0" d="M3.7 30.6h49.9v109.9H3.7z"/><path class="st1" d="M143.2 140.8h-9.7V64.7c0-2.1-1.4-3.7-3.5-4.1l-31.7-4.7V22.4c0-2.3-1.9-4.1-4.1-4.1h-9.3V5.1C85.1 2.8 83.2 1 81 1H25c-2.3 0-4.1 1.8-4.1 4.1v13.2h-9.3c-2.3 0-4.1 1.8-4.1 4.1v118.4h-.7c-2.3 0-4.1 1.9-4.1 4.1s1.8 4.1 4.1 4.1h136.5c2.3 0 4.1-1.9 4.1-4.1s-1.9-4.1-4.2-4.1zM29.2 9.2h47.7v9H29.2v-9zM15.8 26.5h74.5v114.3H15.8V26.5zm82.6 114.3V64.3l26.9 3.9v72.6H98.4z"/><path class="st1" d="M45 37.2H29.4c-2.3 0-4.1 1.8-4.1 4.1v15.6c0 2.3 1.8 4.1 4.1 4.1s4.1-1.8 4.1-4.1V45.4H45c2.3 0 4.1-1.8 4.1-4.1s-1.9-4.1-4.1-4.1zM76.4 37.2H60.8c-2.3 0-4.1 1.8-4.1 4.1v15.6c0 2.3 1.8 4.1 4.1 4.1s4.1-1.8 4.1-4.1V45.4h11.5c2.3 0 4.1-1.8 4.1-4.1s-1.8-4.1-4.1-4.1zM45 71.7H29.4c-2.3 0-4.1 1.9-4.1 4.1v15.6c0 2.3 1.8 4.1 4.1 4.1s4.1-1.9 4.1-4.1V79.9H45c2.3 0 4.1-1.8 4.1-4.1s-1.9-4.1-4.1-4.1zM76.4 71.7H60.8c-2.3 0-4.1 1.9-4.1 4.1v15.6c0 2.3 1.8 4.1 4.1 4.1s4.1-1.9 4.1-4.1V79.9h11.5c2.3 0 4.1-1.8 4.1-4.1s-1.8-4.1-4.1-4.1zM45 106.2H29.4c-2.3 0-4.1 1.9-4.1 4.1V126c0 2.3 1.8 4.1 4.1 4.1s4.1-1.8 4.1-4.1v-11.5H45c2.3 0 4.1-1.8 4.1-4.1s-1.9-4.2-4.1-4.2zM76.4 106.2H60.8c-2.3 0-4.1 1.9-4.1 4.1V126c0 2.3 1.8 4.1 4.1 4.1s4.1-1.8 4.1-4.1v-11.5h11.5c2.3 0 4.1-1.8 4.1-4.1s-1.8-4.2-4.1-4.2z"/></svg>