<svg version="1.1" id="Layer_1" xmlns="http://www.w3.org/2000/svg" x="0" y="0" width="182" height="182" viewBox="0 0 182 182" xml:space="preserve"><style type="text/css">.st0{fill:#f38b00}.st1{fill:#252628}</style><path class="st0" d="M4.3 37H65v133.7H4.3z"/><path class="st1" d="M174 171h-11.7V78.5c0-2.5-1.8-4.5-4.3-5l-38.5-5.8V27c0-2.8-2.3-5-5-5h-11.3V6c0-2.8-2.3-5-5-5h-68c-2.8 0-5 2.3-5 5v16H14c-2.8 0-5 2.2-5 5v144H8c-2.8 0-5 2.3-5 5s2.2 5 5 5h166c2.7 0 5-2.3 5-5s-2.2-5-5-5zM35.2 11h58v11h-58V11zM19 32h90.6v139H19V32zm100.5 139V78l32.8 4.8V171h-32.8z"/><path class="st1" d="M54.5 45h-19c-2.8 0-5 2.3-5 5v19c0 2.8 2.2 5 5 5s5-2.3 5-5V55h14c2.8 0 5-2.3 5-5s-2.3-5-5-5zM92.8 45h-19c-2.8 0-5 2.3-5 5v19c0 2.8 2.3 5 5 5s5-2.3 5-5V55h14c2.7 0 5-2.3 5-5s-2.3-5-5-5zM54.5 87h-19c-2.8 0-5 2.3-5 5v19c0 2.8 2.2 5 5 5s5-2.3 5-5V97h14c2.8 0 5-2.3 5-5s-2.3-5-5-5zM92.8 87h-19c-2.8 0-5 2.3-5 5v19c0 2.8 2.3 5 5 5s5-2.3 5-5V97h14c2.7 0 5-2.3 5-5-.1-2.7-2.3-5-5-5zM54.5 129h-19c-2.8 0-5 2.3-5 5v19c0 2.8 2.2 5 5 5s5-2.3 5-5v-14h14c2.8 0 5-2.3 5-5s-2.3-5-5-5zM92.8 129h-19c-2.8 0-5 2.3-5 5v19c0 2.8 2.3 5 5 5s5-2.3 5-5v-14h14c2.7 0 5-2.3 5-5s-2.3-5-5-5z"/></svg>