<svg version="1.1" id="Layer_1" xmlns="http://www.w3.org/2000/svg" x="0" y="0" viewBox="0 0 183.5 183.7" xml:space="preserve"><style type="text/css">.st0,.st1{opacity:.5;fill:#fff;enable-background:new}.st1{fill:#05a3b0}.st2{fill:#fff}.st3{fill:#05a3b0}</style><g id="XMLID_3_"><g id="XMLID_2_"><path id="XMLID_33_" class="st0" d="M22.9 70.5C26.6 59.2 33 49 41.3 40.9c.1-.1.2-.2.4-.3L27.9 26.8C17.1 37.2 8.9 50.1 4.2 64.7l18.7 5.8z"/><path id="XMLID_24_" class="st0" d="M35.7 137.3c-7.3-9.2-12.3-20.2-14.4-32.2l-19.5 3.4c2.6 15.3 9 29.2 18.2 40.9l15.7-12.1z"/><path id="XMLID_23_" class="st0" d="M92.4 19.6c5.4 0 10.7.6 15.8 1.8l3.7-19.2C105.6.8 99.1.1 92.4.1c-8.7 0-17.1 1.2-25.1 3.5-.1 0-.1 0-.2.1l5.4 18.7c6.2-1.8 12.9-2.8 19.9-2.8z"/><path id="XMLID_22_" class="st0" d="M125.2 155.6c-10.1 5.3-21.6 8.3-33.8 8.2-10.3-.1-20-2.3-28.8-6.2l-8.2 18.2c11.3 5 23.7 7.9 36.9 8 16 .1 31-3.9 44.1-11l-10.2-17.2z"/><path id="XMLID_21_" class="st0" d="M177.4 58.1c-5.6-14.2-14.7-26.6-26.1-36.3l-12.9 14.7c9.2 7.7 16.4 17.6 20.8 28.9l18.2-7.3z"/><path id="XMLID_18_" class="st0" d="M164 98.5c-1.2 12.2-5.5 23.6-12.1 33.2l16.4 11.2c8.5-12.5 13.9-27.2 15.4-43L164 98.5z"/></g><path id="XMLID_14_" class="st1" d="M183.4 99.6c.2-2.5.3-5.1.3-7.6 0-11.9-2.3-23.2-6.4-33.7l-17.9 7.2c-4.4-11.3-11.6-21.3-20.8-28.9l12.7-14.5c-11.2-9.5-24.7-16.4-39.5-19.7l-3.6 19.1c-5.1-1.1-10.4-1.8-15.8-1.8-6.9 0-13.6 1-20 2.8L68 7.2l-1-3.5C51.9 8 38.4 16 27.5 26.7l.3.1 13.8 13.8c-.1.1-.2.2-.4.3-8.4 8.1-14.8 18.2-18.4 29.6L4.3 64.8C1.7 73.4.2 82.5.2 91.9c0 5.7.5 11.3 1.5 16.7h.2v-.1l2.1-.4 1.6-.3 15.7-2.7c2.1 12 7.2 23 14.4 32.2l-15.5 12a92.47 92.47 0 0 0 34.2 26.4l8-18.1c8.8 3.9 18.6 6 28.9 6 12.2 0 23.7-3 33.7-8.4l9.6 16 .5.9.1.2.1.2c13.2-7.2 24.5-17.5 32.8-30l-.2-.1-16.4-11.2c6.6-9.6 10.9-21 12.2-33.2l19.7 1.6z"/><circle id="XMLID_1_" class="st2" cx="91.7" cy="92" r="54.8"/><path id="XMLID_8_" class="st3" d="M78.8 67.3v49.1c0 .8.8 1.3 1.5.9l37.4-24.2c.9-.6.9-1.9 0-2.5L80.3 66.4c-.6-.4-1.5.1-1.5.9z"/></g></svg>